<svg width="131" height="100" viewBox="0 0 131 100" fill="none" xmlns="http://www.w3.org/2000/svg">
<g clip-path="url(#clip0_22_323)">
<path d="M15.3155 35.757C15.3155 35.757 -8.20049 76.765 4.42684 85.3179C17.0542 93.8708 49.7377 100 62.8743 99.9825C75.9934 99.9649 115.877 97.2427 127.82 61.9424C139.762 26.6421 106.376 2.52899 76.0285 3.70567C45.6808 4.88235 15.3155 35.757 15.3155 35.757Z" fill="#F3F25B"/>
<path d="M116.141 22.4974C84.5814 24.236 53.0394 25.9747 21.4799 27.7309C19.109 26.7826 16.7205 25.8518 14.332 24.9034C14.4374 23.9375 14.5428 22.9891 14.6482 22.0232C33.0184 14.7524 51.3535 7.37618 69.8115 0.368799C71.9541 -0.439069 74.9924 0.263425 77.3633 1.01861C92.6074 5.95363 107.816 11.0291 122.973 16.2276C124.922 16.895 126.573 18.4229 130.033 20.6006C124.009 21.4261 120.075 21.9529 116.141 22.4974ZM109.678 17.7906C98.5786 13.4176 86.4957 8.6231 74.3601 3.96908C73.1659 3.51246 71.4799 3.61783 70.2857 4.10958C56.2885 9.81734 42.344 15.6305 28.9088 21.2153C55.8845 20.0738 83.2467 18.9146 109.678 17.7906Z" fill="black"/>
<path d="M16.5449 71.9354C31.5432 71.5314 46.559 71.1451 61.5572 70.6884C81.8242 70.0738 102.074 69.3888 122.341 68.739C122.077 72.6203 121.814 76.5191 121.55 80.4004C120.918 79.7682 120.303 79.1535 119.671 78.5212C120.391 73.0945 117.23 72.3393 112.857 72.5676C82.0525 74.2185 51.2306 75.8166 21.0584 77.3797C19.7764 80.1019 18.7227 82.3323 17.6865 84.5627C17.3001 80.3653 16.9313 76.1503 16.5449 71.9354Z" fill="black"/>
<path d="M23.2186 31.3312C27.3809 30.5409 31.5608 29.7506 37.3036 28.6617C37.7778 40.5163 38.0061 51.1591 38.7086 61.7492C39.1126 68.0541 34.8449 67.7028 30.8056 68.3351C25.9232 69.0903 23.5875 67.0355 23.5699 62.2585C23.5348 56.1644 23.7455 50.0527 23.6401 43.9585C23.5875 40.7973 23.1133 37.6537 22.8323 34.4924C22.9376 33.4387 23.0781 32.385 23.2186 31.3312ZM29.5938 63.9621C34.16 61.8195 35.4245 47.6993 32.2984 33.8251C28.0483 36.8282 26.6257 52.6695 29.5938 63.9621Z" fill="black"/>
<path d="M28.4873 83.5617C35.8811 81.9986 43.2397 79.2413 50.651 79.0657C72.8147 78.5739 94.9959 79.1008 117.177 79.2062C118.003 79.2062 118.828 78.7671 119.653 78.5388C120.286 79.1711 120.9 79.7857 121.533 80.418C117.511 81.2083 113.489 82.0162 109.467 82.8065C87.3563 83.2455 65.2629 83.7197 43.1519 84.1061C38.8667 84.1763 34.5639 83.8778 30.2611 83.7373C29.6815 83.6846 29.0844 83.6143 28.4873 83.5617Z" fill="black"/>
<path d="M46.6117 65.0861C45.9267 53.5652 45.2418 42.0618 44.5569 30.8395C55.0416 26.607 56.8681 27.3446 57.7286 37.1444C58.3785 44.6259 58.6243 52.3007 57.5881 59.6769C57.2018 62.4693 52.7585 64.7173 50.1593 67.2111C48.965 66.5086 47.7884 65.8061 46.6117 65.0861ZM50.1241 60.7482C51.0023 60.836 51.8804 60.9062 52.7585 60.994C52.7585 51.7387 52.7585 42.4833 52.7585 33.228C51.8804 33.228 51.0023 33.2455 50.1241 33.2455C50.1241 42.4131 50.1241 51.5806 50.1241 60.7482Z" fill="black"/>
<path d="M67.3 66.3154C66.6678 56.0239 66.0004 46.5051 65.5613 36.9512C65.333 32.0688 65.5086 27.3621 72.4458 27.2392C79.2248 27.1162 78.6804 32.3674 79.0492 36.354C79.6288 42.4306 78.7507 48.7004 79.6815 54.6891C81.2796 64.8577 75.9056 66.7545 67.3 66.3154ZM70.549 30.98C70.549 41.6403 70.549 51.8616 70.549 62.4517C77.7672 58.8514 77.7145 35.7394 70.549 30.98Z" fill="black"/>
<path d="M99.5095 61.5736C87.0226 65.7183 86.97 65.7183 86.8295 54.6189C86.7241 46.2943 86.8119 37.9522 86.8119 29.4872C89.9555 29.6804 92.748 29.856 96.5239 30.1019C97.5425 40.7446 98.5435 51.2996 99.5095 61.5736ZM91.2376 60.3091C92.6953 60.1335 94.153 59.9579 95.6106 59.7822C94.6623 50.8079 93.6963 41.8511 92.748 32.8767C91.5888 32.9996 90.4122 33.1226 89.2531 33.2455C89.9204 42.255 90.5878 51.2821 91.2376 60.3091Z" fill="black"/>
<path d="M105.709 61.9599C105.709 52.4235 105.428 42.8521 105.955 33.3333C106.06 31.4892 109.344 29.8032 111.171 28.0646C112.874 29.8559 115.913 31.5595 116.036 33.4387C116.545 41.2539 116.826 49.2096 115.79 56.9195C115.421 59.7119 111.083 61.9599 108.554 64.4538C107.606 63.6283 106.657 62.7853 105.709 61.9599ZM111.715 33.3333C111.188 33.3157 110.679 33.2982 110.152 33.2982C110.152 41.6578 110.152 50.0351 110.152 58.3948C110.679 58.4123 111.188 58.4299 111.715 58.4474C111.715 50.0702 111.715 41.693 111.715 33.3333Z" fill="black"/>
<path d="M109.678 17.7906C83.2466 18.9146 55.8845 20.0737 28.9087 21.2153C42.3614 15.6304 56.306 9.79975 70.2856 4.10955C71.4798 3.6178 73.1658 3.51243 74.36 3.96905C86.4956 8.62307 98.5785 13.4176 109.678 17.7906Z" fill="#F3F25B"/>
</g>
<defs>
<clipPath id="clip0_22_323">
<rect width="129.593" height="100" fill="white" transform="translate(0.703613)"/>
</clipPath>
</defs>
</svg>
