<svg width="111" height="100" viewBox="0 0 111 100" fill="none" xmlns="http://www.w3.org/2000/svg">
<g clip-path="url(#clip0_22_309)">
<path d="M85.4337 23.1974C93.1712 25.892 100.773 28.7822 104.506 37.0165C97.5367 37.0767 90.5519 36.9412 83.5972 37.3175C81.7757 37.4229 78.6596 38.9584 78.4941 40.1777C77.4554 47.4033 77.0941 54.7344 76.5221 61.9751C87.0143 61.9751 96.0614 61.9751 104.296 61.9751C104.928 54.0871 105.5 46.9517 106.057 39.8164C112.244 46.5152 109.79 54.644 108.255 61.6439C103.558 83.0348 83.9735 98.8259 62.2815 99.6538C57.645 99.8345 52.9484 98.5399 48.2818 97.9076C48.6732 97.2754 49.5613 96.2969 49.3958 96.0711C42.8927 86.9036 36.2842 77.8113 28.7876 67.4545C22.2845 77.7661 17.0158 86.0907 11.7622 94.4303C7.62247 91.4497 0.773151 91.0132 0.938739 83.8778C1.22475 71.7147 18.1448 39.7712 23.2178 35.3756C23.0372 42.2099 23.82 48.5323 32.0241 50.399C40.3185 52.2807 47.484 49.4807 49.1248 43.8959C51.2624 36.61 47.0625 30.393 38.0154 27.4575C36.6003 27.0059 35.1552 26.6296 33.7251 26.2081C39.611 18.2298 48.4624 18.5158 56.9827 17.8835C55.5376 21.1652 54.0924 24.4468 52.3161 28.4511C62.6729 27.8339 71.8404 27.4425 80.9628 26.5844C82.5434 26.449 83.9434 24.3866 85.4337 23.1974ZM64.7954 44.4228C66.6018 45.2507 67.761 45.7776 68.905 46.3195C69.2512 45.9883 69.5824 45.6421 69.9286 45.3109C68.3029 42.5411 66.6771 39.7562 64.5245 36.0832C61.1826 39.2745 58.6386 41.683 56.1096 44.1066C56.8171 44.3023 57.5246 44.5131 58.2321 44.7088C58.6085 46.6657 59.9332 49.1796 59.1805 50.5043C55.6429 56.6913 51.5183 62.5471 47.6195 68.5233C46.8367 69.7125 46.0991 70.9469 45.3464 72.1512C56.2451 66.1148 61.4536 56.2849 64.7954 44.4228Z" fill="#F3F25B"/>
<path d="M11.7471 94.4452C17.0158 86.1056 22.2695 77.766 28.7725 67.4695C36.2691 77.8262 42.8776 86.9336 49.3807 96.0861C49.5463 96.3269 48.6581 97.2903 48.2667 97.9226C35.4111 98.6 22.5555 99.2774 8.75146 100C10.0009 97.6968 10.874 96.071 11.7471 94.4452Z" fill="black"/>
<path d="M85.4336 23.1974C83.9434 24.3866 82.5434 26.4489 80.9477 26.5994C71.8253 27.4424 62.6578 27.8489 52.301 28.4661C54.0773 24.4468 55.5225 21.1802 56.9676 17.8985C60.2794 12.1331 63.5761 6.38266 67.2491 0C73.6167 8.12886 79.5327 15.6706 85.4336 23.1974ZM61.2879 17.2512C60.0385 19.4641 58.7891 21.692 57.1783 24.5522C65.4577 23.95 72.4726 23.4533 80.1951 22.8963C77.9069 20.0361 76.2209 17.9437 74.535 15.8362C72.3372 12.7503 70.1394 9.66431 67.3996 5.85579C64.9911 10.3417 63.1395 13.804 61.2879 17.2512Z" fill="#171412"/>
<path d="M106.057 39.8314C105.485 46.9668 104.913 54.087 104.296 61.9901C96.0613 61.9901 87.0142 61.9901 76.522 61.9901C77.1091 54.7644 77.4553 47.4334 78.494 40.1927C78.6746 38.9734 81.7756 37.4379 83.5971 37.3326C90.5518 36.9412 97.5366 37.0917 104.506 37.0315C105.018 37.9498 105.545 38.8831 106.057 39.8314ZM80.2703 58.859C87.5712 58.859 94.1646 58.859 101.18 58.859C101.18 52.6419 101.18 46.7861 101.18 40.0121C94.571 40.4035 88.2486 40.7647 81.4896 41.1561C81.2036 44.2421 80.9326 46.6807 80.767 49.1345C80.5412 52.2957 80.4359 55.4569 80.2703 58.859Z" fill="#171412"/>
<path d="M33.725 26.208C35.1551 26.6145 36.6002 26.9908 38.0152 27.4574C47.0624 30.3929 51.2623 36.6099 49.1247 43.8958C47.4839 49.4806 40.3184 52.2806 32.024 50.3989C23.8349 48.5473 23.0371 42.2098 23.2177 35.3756C26.7252 32.3197 30.2176 29.2639 33.725 26.208ZM36.4949 47.4334C43.0431 47.5839 45.8731 45.5667 45.9936 40.6744C46.1291 35.2852 41.3872 30.7843 35.1551 30.5585C30.052 30.3778 27.1467 32.967 26.7402 38.025C26.2435 44.1668 29.5552 47.2678 36.4949 47.4334Z" fill="#171412"/>
<path d="M64.7955 44.4227C61.4536 56.2848 56.2451 66.1147 45.3464 72.1512C46.0991 70.9469 46.8367 69.7125 47.6195 68.5233C51.5183 62.5471 55.643 56.6913 59.1805 50.5043C59.9332 49.1796 58.6085 46.6657 58.2322 44.7088C57.5247 44.5131 56.8172 44.3023 56.1096 44.1066C58.6537 41.683 61.1827 39.2745 64.5245 36.0831C66.6772 39.7562 68.3029 42.526 69.9287 45.3109C69.5825 45.6421 69.2513 45.9883 68.9051 46.3195C67.761 45.7775 66.6019 45.2507 64.7955 44.4227Z" fill="#171412"/>
<path d="M74.5199 15.8362C76.2059 17.9437 77.8919 20.0361 80.18 22.8962C72.4576 23.4532 65.4427 23.965 57.1633 24.5521C58.774 21.692 60.0235 19.4791 61.2729 17.2512C65.6986 16.7845 70.1093 16.3028 74.5199 15.8362Z" fill="#F3F25B"/>
<path d="M80.2703 58.8589C80.4359 55.4418 80.5563 52.2957 80.752 49.1495C80.9176 46.6958 81.1885 44.2571 81.4745 41.1712C88.2486 40.7798 94.571 40.4034 101.164 40.0271C101.164 46.7861 101.164 52.6569 101.164 58.874C94.1495 58.859 87.5561 58.8589 80.2703 58.8589Z" fill="#F3F25B"/>
<path d="M36.4949 47.4334C29.5553 47.2829 26.2435 44.1668 26.7403 38.025C27.1467 32.9671 30.0671 30.3779 35.1552 30.5585C41.3722 30.7843 46.1291 35.2853 45.9936 40.6744C45.8732 45.5518 43.0432 47.5689 36.4949 47.4334Z" fill="#F3F25B"/>
</g>
<defs>
<clipPath id="clip0_22_309">
<rect width="109.122" height="100" fill="white" transform="translate(0.938721)"/>
</clipPath>
</defs>
</svg>
