<svg width="133" height="100" viewBox="0 0 133 100" fill="none" xmlns="http://www.w3.org/2000/svg">
<g clip-path="url(#clip0_22_338)">
<path d="M82.5871 14.3893C88.2406 20.4714 93.8776 26.57 99.5312 32.6521C99.251 32.6685 98.9873 32.7015 98.7071 32.685C81.2849 32.2894 81.3014 32.2894 81.3509 49.6291C81.3838 62.6339 81.3509 75.6387 81.3509 88.4951C87.3505 88.4951 92.3942 88.4951 99.5147 88.4951C99.5147 69.5566 99.5147 51.0961 99.5147 32.6191C103.256 36.064 107.163 39.3605 110.706 42.9866C113.888 46.2337 116.673 49.8599 119.64 53.3048C118.503 54.541 117.365 55.7607 116.228 56.9969C118.206 57.4913 120.167 57.9693 121.321 58.2495C121.321 61.5625 121.321 64.6118 121.321 67.6776C109.223 84.9843 94.5205 97.5935 71.6591 97.0002C65.1979 96.8353 58.6873 98.566 52.2096 99.4725C41.4135 100.972 31.6723 99.6868 25.2111 89.4841C30.0075 89.1709 34.804 88.8578 39.8641 88.5446C39.8641 78.6056 39.8641 69.2105 39.8641 59.8648C37.161 59.8648 34.9523 60.2604 32.9579 59.7989C25.0957 57.9364 23.431 61.8922 23.7441 68.6501C24.0573 75.4574 23.7771 82.2812 23.7606 89.0885C10.591 85.5942 2.46507 60.8373 5.84401 47.2392C9.56908 45.8546 13.5414 44.8821 17.0027 43.0031C34.8864 33.2454 52.6217 23.224 70.4723 13.4004C71.9558 12.5927 73.7853 12.4279 76.7522 11.6202C74.9226 15.609 73.9007 17.8342 72.8788 20.0758C73.2579 20.389 73.637 20.6857 74.0161 20.9988C76.8511 18.7902 79.7191 16.5815 82.5871 14.3893ZM69.335 44.9316C62.297 44.9316 57.0555 44.9316 50.5613 44.9316C50.5613 56.42 50.38 67.2655 50.6108 78.1111C50.8415 88.5281 54.9622 91.5115 65.3957 88.8578C66.9615 88.4622 69.1372 86.1711 69.1702 84.7206C69.4669 71.5181 69.335 58.299 69.335 44.9316Z" fill="#F3F25B"/>
<path d="M82.587 14.3893C79.7191 16.598 76.8511 18.7901 73.9996 20.9988C73.6205 20.6856 73.2414 20.389 72.8623 20.0758C73.8842 17.8342 74.9226 15.5925 76.7357 11.6202C73.7688 12.4279 71.9393 12.5927 70.4558 13.4003C52.6216 23.224 34.8864 33.2454 17.0027 43.0031C13.5414 44.8821 9.58555 45.8546 5.84399 47.2391C6.17365 46.1842 6.5033 45.1294 6.83295 44.0745C7.60763 44.0415 8.53066 44.2723 9.12403 43.9426C26.3978 34.086 43.6551 24.18 60.9124 14.2739C64.176 12.3949 67.423 10.4664 70.6866 8.57092C70.4393 8.027 70.1756 7.49955 69.9284 6.95563C67.901 7.15342 65.8572 7.36769 63.8298 7.56548C63.9287 6.09853 63.7474 3.46131 64.1924 3.34593C69.6647 1.9614 75.1863 0.576856 80.7904 0.0329302C83.3452 -0.214309 86.0978 1.41747 88.7515 2.19215C87.7955 5.07661 87.0209 8.04348 85.7847 10.7961C85.1583 12.1806 83.6749 13.2025 82.587 14.3893ZM72.3019 8.09293C72.8128 7.89514 73.3073 7.69734 73.8018 7.49955C73.5381 7.1699 73.2908 6.62597 72.9942 6.59301C72.5656 6.54356 72.0876 6.85673 71.6261 7.02156C71.8404 7.36769 72.0711 7.71383 72.3019 8.09293Z" fill="#171412"/>
<path d="M63.8135 7.56542C65.8409 7.36763 67.8847 7.15336 69.9121 6.95557C70.1593 7.49949 70.423 8.02694 70.6703 8.57086C67.4067 10.4664 64.1761 12.3948 60.8961 14.2738C43.6388 24.1799 26.398 34.0859 9.10773 43.9425C8.51436 44.2887 7.59133 44.0414 6.81665 44.0744C9.61869 32.8333 17.9919 25.9106 27.4364 21.3284C39.0566 15.6749 51.6494 12.0487 63.8135 7.56542Z" fill="#F3F25B"/>
<path d="M23.7937 89.0885C23.8102 82.2647 24.0904 75.4409 23.7773 68.65C23.4641 61.8757 25.1288 57.9363 32.991 59.7989C34.9854 60.2769 37.1941 59.8648 39.8973 59.8648C39.8973 69.2104 39.8973 78.6055 39.8973 88.5445C34.8371 88.8742 30.0407 89.1874 25.2442 89.4841C24.6838 89.5665 24.2058 89.4346 23.7937 89.0885ZM29.1671 63.6723C29.1671 71.6499 29.1671 79.1495 29.1671 87.16C32.0186 86.8798 34.2767 86.6655 36.5348 86.4513C36.5348 78.1935 36.5348 70.6115 36.5348 62.6009C33.7657 62.9965 31.4417 63.3426 29.1671 63.6723Z" fill="#171412"/>
<path d="M9.71752 18.8066C9.71752 17.2737 9.71752 15.5431 9.71752 13.5322C7.09678 13.1531 4.65736 12.8234 0.750977 12.263C6.20672 8.70277 10.3603 5.98314 14.1513 3.49426C16.7556 5.17549 19.9367 7.23582 22.4586 8.86759C18.8818 11.6532 14.5799 15.0156 9.71752 18.8066Z" fill="#171412"/>
<path d="M121.321 67.6941C121.321 64.6283 121.321 61.579 121.321 58.266C120.168 57.9858 118.206 57.4913 116.228 57.0133C117.366 55.7772 118.503 54.5574 119.64 53.3212C122.64 51.1785 125.64 49.0358 128.327 47.1238C129.563 48.9039 131.277 51.3763 132.249 52.7773C129.942 56.3376 127.75 59.9143 125.343 63.3427C124.206 64.958 122.673 66.2601 121.321 67.6941Z" fill="#171412"/>
<path d="M122.459 15.6585C118.948 14.4882 115.536 13.3509 112.289 12.2631C115.058 8.78524 118.288 4.747 121.601 0.593384C123.794 2.43944 126.761 4.94479 129.612 7.35125C127.519 9.7742 124.75 13.0048 122.459 15.6585Z" fill="#272727"/>
<path d="M69.3351 44.9315C69.3351 58.2989 69.4504 71.5015 69.1702 84.7041C69.1373 86.1545 66.9616 88.4456 65.3957 88.8412C54.9622 91.4949 50.8416 88.5115 50.6108 78.0945C50.3801 67.249 50.5614 56.4034 50.5614 44.915C57.0555 44.9315 62.297 44.9315 69.3351 44.9315ZM55.3413 48.3599C55.3413 61.5295 55.3413 73.9244 55.3413 86.4842C58.6378 86.4842 61.4564 86.4842 64.5551 86.4842C64.5551 73.908 64.5551 61.7768 64.5551 49.0522C61.4234 48.8214 58.6378 48.6071 55.3413 48.3599Z" fill="#171412"/>
<path d="M99.5148 32.6355C99.5148 51.096 99.5148 69.573 99.5148 88.5116C92.3943 88.5116 87.3341 88.5116 81.3509 88.5116C81.3509 75.6386 81.3674 62.6339 81.3509 49.6456C81.318 32.2894 81.3015 32.2894 98.7071 32.7014C98.9708 32.685 99.251 32.652 99.5148 32.6355ZM94.0096 86.682C94.0096 70.1005 94.0096 53.8321 94.0096 37.366C90.8284 37.2012 88.1747 37.0693 85.3892 36.921C85.3892 53.453 85.3892 69.9192 85.3892 86.6655C88.4549 86.682 91.0921 86.682 94.0096 86.682Z" fill="#171412"/>
<path d="M72.3019 8.09292C72.0711 7.7303 71.8404 7.36768 71.6096 7.02155C72.0711 6.85672 72.5491 6.54355 72.9777 6.593C73.2744 6.62597 73.5216 7.18637 73.7853 7.49954C73.3073 7.68085 72.8128 7.87864 72.3019 8.09292Z" fill="#E6A676"/>
<path d="M29.167 63.6723C31.4416 63.3427 33.7656 62.9965 36.5347 62.601C36.5347 70.6115 36.5347 78.1935 36.5347 86.4513C34.2766 86.6656 32.035 86.8798 29.167 87.16C29.167 79.133 29.167 71.6334 29.167 63.6723Z" fill="#F3F25B"/>
<path d="M55.3413 48.36C58.6543 48.6072 61.4399 48.8215 64.5551 49.0687C64.5551 61.7933 64.5551 73.9245 64.5551 86.5007C61.4564 86.5007 58.6378 86.5007 55.3413 86.5007C55.3413 73.908 55.3413 61.5296 55.3413 48.36Z" fill="#F3F25B"/>
<path d="M94.0096 86.682C91.0921 86.682 88.4549 86.682 85.3892 86.682C85.3892 69.9357 85.3892 53.4696 85.3892 36.9375C88.1747 37.0858 90.8284 37.2177 94.0096 37.3825C94.0096 53.8322 94.0096 70.1005 94.0096 86.682Z" fill="#F3F25B"/>
</g>
<defs>
<clipPath id="clip0_22_338">
<rect width="131.498" height="100" fill="white" transform="translate(0.750977)"/>
</clipPath>
</defs>
</svg>
